<svg id="Layer_1" data-name="Layer 1" xmlns="http://www.w3.org/2000/svg" xmlns:xlink="http://www.w3.org/1999/xlink" viewBox="0 0 299.36 102">
  <defs>
    <style>
      .cls-1 {
        fill: url(#New_Gradient_Swatch_1);
      }

      .cls-2 {
        fill: none;
      }

      .cls-2, .cls-3 {
        stroke: #fff;
        stroke-miterlimit: 10;
        stroke-width: 3px;
      }

      .cls-3 {
        fill: url(#New_Gradient_Swatch_1-2);
      }

      .cls-4 {
        font-size: 29.34px;
        fill: #fff;
        font-family: MyriadPro-Bold, Myriad Pro;
        font-weight: 700;
      }

      .cls-5 {
        letter-spacing: -0.01em;
      }

      .cls-6 {
        letter-spacing: -0.01em;
      }

      .cls-7 {
        letter-spacing: 0em;
      }

      .cls-8 {
        letter-spacing: -0.02em;
      }

      .cls-9 {
        letter-spacing: 0em;
      }
    </style>
    <linearGradient id="New_Gradient_Swatch_1" data-name="New Gradient Swatch 1" x1="41.58" y1="16.28" x2="60.58" y2="86.28" gradientUnits="userSpaceOnUse">
      <stop offset="0" stop-color="#007297"/>
      <stop offset="0.94" stop-color="#005b97"/>
    </linearGradient>
    <linearGradient id="New_Gradient_Swatch_1-2" x1="26.33" y1="-0.2" x2="62.33" y2="100.46" xlink:href="#New_Gradient_Swatch_1"/>
  </defs>
  <g>
    <g>
      <circle class="cls-1" cx="51" cy="51" r="51"/>
      <g>
        <g>
          <circle class="cls-2" cx="51" cy="51" r="46.25"/>
          <path class="cls-2" d="M17.86,26.4s30,16.11,69.18,0" transform="translate(-1.45 -6.09)"/>
          <path class="cls-2" d="M6.56,51.39s36.64,25.1,92.14,0" transform="translate(-1.45 -6.09)"/>
        </g>
        <path class="cls-2" d="M19.51,57.47c11-41.14,32.94-46.63,32.94-46.63S69,13.32,84.29,57" transform="translate(-1.45 -6.09)"/>
        <path class="cls-2" d="M38.11,61.81a97.76,97.76,0,0,1,14.34-48.7s12.18,19,11.13,48.56" transform="translate(-1.45 -6.09)"/>
      </g>
      <path class="cls-3" d="M82.16,64.85a5.64,5.64,0,0,0,1.68-3.8c0-3.51-4.1-6.66-10.61-8.82A4.89,4.89,0,0,0,73.38,51c0-4.49-5.66-8.31-13.6-9.8-2.36-5.3-8.41-17.86-9.8-10.88a32.07,32.07,0,0,1-4.13,10.75C37.53,42.47,31.52,46.4,31.52,51a5.41,5.41,0,0,0,.14,1.21c-6.5,2.16-10.6,5.31-10.6,8.82a5.64,5.64,0,0,0,1.68,3.8c-4.88,2.21-7.79,5-7.79,8,0,7.23,16.79,13.08,37.5,13.08S90,80.05,90,72.82C90,69.82,87,67.06,82.16,64.85Z" transform="translate(-1.45 -6.09)"/>
    </g>
    <text class="cls-4" transform="translate(114.63 33.58) scale(0.96 1)">N<tspan class="cls-5" x="20.24" y="0">a</tspan><tspan x="35.5" y="0">tional</tspan></text>
    <text class="cls-4" transform="translate(114.63 59.63) scale(0.96 1)">O<tspan class="cls-6" x="21.03" y="0">c</tspan><tspan x="33.94" y="0">ean</tspan><tspan class="cls-7" x="82.11" y="0">o</tspan><tspan x="99.13" y="0">g</tspan><tspan class="cls-6" x="116.29" y="0">r</tspan><tspan x="127.12" y="0">ap</tspan><tspan class="cls-8" x="160.15" y="0">h</tspan><tspan x="176.78" y="0">y</tspan></text>
    <text class="cls-4" transform="translate(114.63 85.63) scale(0.96 1)"><tspan class="cls-9">C</tspan><tspan class="cls-6" x="17.34" y="0">r</tspan><tspan x="28.16" y="0">ap</tspan><tspan class="cls-7" x="61.2" y="0">p</tspan><tspan x="78.83" y="0">ers</tspan></text>
  </g>
</svg>
